HIERARCHY
ROOT hip
{
	OFFSET 0.000000 0.000000 0.000000 
	CHANNELS 6 Xposition Yposition Zposition Xrotation Zrotation Yrotation
	JOINT abdomen
	{
		OFFSET 0.000000 3.402643 0.000000 
		CHANNELS 3 Xrotation Zrotation Yrotation
		JOINT chest
		{
			OFFSET 0.000000 8.438565 -0.680529 
			CHANNELS 3 Xrotation Zrotation Yrotation
			JOINT neck
			{
				OFFSET 0.000000 10.207942 -0.272212 
				CHANNELS 3 Xrotation Zrotation Yrotation
				JOINT head
				{
					OFFSET 0.000000 3.130431 0.000000 
					CHANNELS 3 Xrotation Zrotation Yrotation
					End Site
					{
						OFFSET 0.000000 3.130435 0.000000 
					}
				}
			}
			JOINT lCollar
			{
				OFFSET 3.470700 6.669187 -0.816635 
				CHANNELS 3 Yrotation Zrotation Xrotation
				JOINT lShldr
				{
					OFFSET 3.198488 0.000000 0.000000 
					CHANNELS 3 Zrotation Yrotation Xrotation
					JOINT lForeArm
					{
						OFFSET 10.139888 0.000000 0.000000 
						CHANNELS 3 Yrotation Zrotation Xrotation
						JOINT lHand
						{
							OFFSET 8.370511 0.000000 0.000000 
							CHANNELS 3 Zrotation Yrotation Xrotation
							End Site
							{
								OFFSET 4.083176 0.000000 0.000000 
							}
						}
					}
				}
			}
			JOINT rCollar
			{
				OFFSET -3.470700 6.669187 -0.816635 
				CHANNELS 3 Yrotation Zrotation Xrotation
				JOINT rShldr
				{
					OFFSET -3.198488 0.000000 0.000000 
					CHANNELS 3 Zrotation Yrotation Xrotation
					JOINT rForeArm
					{
						OFFSET -10.139888 0.000000 0.000000 
						CHANNELS 3 Yrotation Zrotation Xrotation
						JOINT rHand
						{
							OFFSET -8.370511 0.000000 0.000000 
							CHANNELS 3 Zrotation Yrotation Xrotation
							End Site
							{
								OFFSET -4.083176 0.000000 0.000000 
							}
						}
					}
				}
			}
		}
	}
	JOINT lThigh
	{
		OFFSET 5.308129 -1.633274 1.361059 
		CHANNELS 3 Xrotation Zrotation Yrotation
		JOINT lShin
		{
			OFFSET -2.041588 -20.007561 0.000000 
			CHANNELS 3 Xrotation Zrotation Yrotation
			JOINT lFoot
			{
				OFFSET 0.000000 -19.190928 -1.224953 
				CHANNELS 3 Xrotation Yrotation Zrotation
				End Site
				{
					OFFSET 0.000000 -2.449906 4.627600 
				}
			}
		}
	}
	JOINT rThigh
	{
		OFFSET -5.308129 -1.633274 1.361059 
		CHANNELS 3 Xrotation Zrotation Yrotation
		JOINT rShin
		{
			OFFSET 2.041588 -20.007561 0.000000 
			CHANNELS 3 Xrotation Zrotation Yrotation
			JOINT rFoot
			{
				OFFSET 0.000000 -19.190928 -1.224953 
				CHANNELS 3 Xrotation Yrotation Zrotation
				End Site
				{
					OFFSET 0.000000 -2.449906 4.627600 
				}
			}
		}
	}
}
MOTION
Frames: 12
Frame Time: 0.016667
22.750584 48.645676 98.417191 -3.349609 -0.703125 -3.125120 0.000000 0.000000 0.000000 0.175781 3.857420 -0.155593 -9.501953 -1.542969 0.429687 1.562500 -3.671875 0.966797 3.417969 -12.753907 3.234578 1.445312 9.277345 6.933594 0.244141 4.033200 2.157518 6.054688 -4.355469 -5.869141 -2.490235 8.056641 2.626953 -6.191406 1.455078 7.998046 -2.509766 -2.255859 2.226947 -6.318359 2.919922 -11.142672 10.301004 9.100361 6.004774 1.882562 -2.957947 -0.076549 1.406226 -0.226583 0.468218 9.729615 -10.648037 -5.741155 1.395243 3.950641 0.029766 3.573125 1.495321 -5.421734 
22.755241 48.644127 98.428070 -3.173828 -0.703125 -3.134885 0.000000 0.000000 0.000000 0.000000 4.042969 -0.185547 -9.677735 -1.542969 0.439453 1.386719 -3.847657 0.995438 3.427734 -12.929687 3.242188 1.445312 9.277345 7.109375 0.058594 4.042969 2.167969 6.035156 -4.003906 -5.869823 -2.851563 7.871094 2.666016 -6.191406 1.630859 7.998326 -2.509766 -2.255859 2.226947 -5.966797 2.939453 -10.771485 10.048250 8.866903 5.985013 1.880277 -2.748858 -0.067102 1.406776 -0.290095 0.632193 9.636474 -10.740090 -5.722375 1.413442 4.140753 0.030087 3.399666 1.525260 -5.422760 
22.761450 48.641026 98.437386 -2.998047 -0.703131 -3.134857 0.000000 0.000000 0.000000 0.000000 4.218750 -0.185547 -9.677735 -1.708984 0.468750 1.386719 -4.013672 0.839854 3.427734 -13.105468 3.251953 1.621094 9.277344 7.109375 0.058594 4.042969 2.167969 6.015625 -3.828125 -5.869140 -3.027344 7.861328 2.685547 -6.191406 1.806641 7.998045 -2.333985 -2.255859 2.246094 -5.781250 2.773438 -10.585938 9.879721 9.041108 6.000900 1.880252 -2.748799 -0.076864 1.407139 -0.279121 0.636198 9.441793 -10.887408 -5.759410 1.560879 4.077077 0.031473 3.399797 1.523666 -5.402644 
22.766108 48.636368 98.446686 -2.998047 -0.703131 -3.134857 0.000000 0.000000 0.000000 0.000000 4.384766 0.000000 -9.677735 -1.708984 0.468750 1.210938 -4.189453 0.878193 3.427734 -13.105468 3.251953 1.621094 9.101563 7.109375 0.058594 4.042969 2.167969 6.015625 -3.828125 -5.693359 -3.203125 7.685547 2.529297 -6.367188 1.806641 8.007812 -2.333985 -2.255859 2.246094 -5.605469 2.783203 -10.400393 9.879720 9.041106 6.000900 1.880252 -2.748799 -0.076864 1.231589 -0.268317 0.640104 9.436171 -10.882155 -5.570810 1.560869 4.077081 0.031472 3.362003 1.318016 -5.473776 
22.770765 48.630161 98.456009 -2.822266 -0.703125 -3.134885 0.000000 0.000000 0.000000 0.000000 4.570313 0.000000 -9.853516 -1.708984 0.468459 1.025391 -4.189453 0.887959 3.427734 -13.281250 3.263962 1.445313 9.101563 7.101156 0.058594 4.042969 2.167969 6.005859 -3.652344 -5.517578 -3.203125 7.509766 2.519531 -6.367188 1.982422 8.007813 -2.333985 -2.255859 2.246094 -5.595703 2.607422 -10.224163 9.802149 9.119840 5.813740 1.980874 -2.664993 -0.083029 1.049329 -0.420409 0.760906 9.436164 -10.882160 -5.570812 1.561241 4.076929 0.031474 3.403815 1.574086 -5.581428 
22.773870 48.623947 98.463776 -2.822266 -0.703125 -3.134885 0.000000 0.000000 0.000000 0.000000 4.570313 -0.185547 -9.853516 -1.708984 0.468459 1.025391 -4.365234 0.907460 3.242188 -13.115234 3.215106 1.445312 9.277345 7.109375 0.058594 4.042969 2.167969 6.005859 -3.652344 -5.517578 -3.203125 7.509766 2.519531 -6.367188 1.982422 8.007813 -2.333985 -2.255859 2.246094 -5.595703 2.607422 -10.224163 9.802150 9.119838 5.813740 1.980874 -2.664993 -0.083029 0.862343 -0.419568 0.761013 9.197935 -10.644461 -5.547716 1.395629 3.950505 0.029768 3.564795 1.505616 -5.418444 
22.776976 48.622395 98.473076 -2.822266 -0.703125 -3.134885 0.000000 0.000000 0.000000 0.175781 4.570313 -0.156250 -9.853516 -1.884766 0.498047 1.025391 -4.365234 0.907460 3.242188 -13.115234 3.215106 1.445312 9.277345 7.109375 0.058594 4.042969 2.167969 6.005859 -3.652344 -5.341797 -3.193360 7.333984 2.509766 -6.367188 1.982422 8.183596 -2.333985 -2.255859 2.246094 -5.761718 2.421875 -10.409742 9.802149 9.119840 5.813740 1.980874 -2.664993 -0.083029 1.049326 -0.420409 0.760906 9.192977 -10.638481 -5.368887 1.395239 3.950689 0.039525 3.568265 1.486993 -5.589945 
22.776976 48.622395 98.480850 -2.822266 -0.703125 -3.134885 0.000000 0.000000 0.000000 0.175781 4.570313 -0.156250 -9.853516 -1.884766 0.498047 0.849609 -4.365234 0.926991 3.066406 -13.300781 3.185840 1.445313 9.453125 7.110981 0.058594 4.042969 2.167969 6.181641 -3.642578 -5.351563 -3.193360 7.333984 2.509766 -6.367188 1.982422 8.183596 -2.333985 -2.255859 2.246094 -5.761718 2.421875 -10.409742 9.802150 9.119838 5.813740 1.980874 -2.664993 -0.083029 1.204341 -0.438305 0.577666 9.192978 -10.638481 -5.368887 1.395239 3.950689 0.039525 3.573861 1.492184 -5.784136 
22.778526 48.625500 98.491699 -2.646484 -0.703125 -3.134765 0.000000 0.000000 0.000000 0.175781 4.746094 -0.156250 -9.853516 -1.884766 0.498047 0.849609 -4.531250 0.947266 3.066406 -13.300781 3.185840 1.455078 9.453125 7.286763 0.058594 4.042969 2.167969 6.181641 -3.642578 -5.175782 -3.193360 7.333984 2.509766 -6.367188 1.982422 8.359376 -2.509766 -2.255859 2.226947 -5.761718 2.421875 -10.585524 9.576922 9.080089 5.805198 1.980887 -2.664982 -0.083029 1.214332 -0.434189 0.568791 9.192976 -10.638484 -5.368888 1.395618 3.950509 0.029768 3.575946 1.503281 -5.780522 
22.776976 48.630161 98.501015 -2.646484 -0.703125 -3.134765 0.000000 0.000000 0.000000 0.175781 4.746094 -0.332031 -9.853516 -1.884766 0.498047 0.849609 -4.531250 0.947266 3.066406 -13.476563 3.195635 1.630859 9.628906 7.294923 -0.117188 4.042969 2.187500 6.347656 -3.457031 -5.361329 -3.017578 7.343750 2.480469 -6.367188 1.982422 8.359376 -2.509766 -2.255859 2.226947 -5.937500 2.412109 -10.595291 9.577159 9.080577 5.636630 1.980944 -2.665039 -0.073267 1.214041 -0.435784 0.568208 9.192973 -10.638489 -5.368888 1.395245 3.950686 0.039525 3.574110 1.491872 -5.773909 
22.773870 48.634811 98.508789 -2.470703 -0.703130 -3.134862 0.000000 0.000000 0.000000 0.175781 4.746094 -0.332031 -9.853516 -1.884766 0.498047 0.849609 -4.531250 0.947266 3.076172 -13.652344 3.205430 1.806641 9.804688 7.482133 -0.292969 4.042972 2.206341 6.523438 -3.437500 -5.547461 -3.017578 7.343750 2.480469 -6.201172 2.158243 8.701694 -2.509766 -2.255859 2.226947 -5.927735 2.236328 -10.947266 9.358474 9.048232 5.272923 1.980141 -2.665538 -0.083018 1.213586 -0.443068 0.752789 9.067435 -10.522507 -5.517085 1.539526 3.896749 0.030863 3.429005 1.718369 -5.913938 
22.769211 48.639473 98.511894 -2.470703 -0.878906 -3.134916 0.000000 0.000000 0.000000 0.000000 4.746094 -0.361328 -10.029297 -1.855469 0.683594 0.673828 -4.531250 1.132813 3.076172 -13.828125 3.212891 1.816406 9.804688 7.832031 -0.292969 4.042972 2.206341 6.865234 -3.242188 -5.918464 -3.017578 7.167968 2.470703 -6.035156 2.158203 9.042969 -2.509766 -2.255859 2.226947 -6.074219 1.875000 -11.132812 9.071990 9.091988 4.918467 2.203149 -2.740005 -0.096844 1.571176 -0.629767 1.059399 8.854255 -10.466056 -5.503491 1.560291 3.899014 0.032264 3.602161 1.759191 -5.888606 
